<?xml version="1.0" encoding="utf-8"?>
<!-- Generator: Adobe Illustrator 16.0.0, SVG Export Plug-In . SVG Version: 6.00 Build 0)  -->
<!DOCTYPE svg PUBLIC "-//W3C//DTD SVG 1.1//EN" "http://www.w3.org/Graphics/SVG/1.1/DTD/svg11.dtd">
<svg version="1.1" id="Layer_1" xmlns="http://www.w3.org/2000/svg" xmlns:xlink="http://www.w3.org/1999/xlink" x="0px" y="0px"
	 width="82.299px" height="17.954px" viewBox="0 0 82.299 17.954" enable-background="new 0 0 82.299 17.954" xml:space="preserve">
<polygon fill="#0087FF" points="10.878,1.978 20.102,17.954 20.729,17.954 10.365,0 0,17.954 1.656,17.954 "/>
<defs>
	<filter id="Adobe_OpacityMaskFilter" filterUnits="userSpaceOnUse" x="3.072" y="4.949" width="14.1" height="15.495">
		<feColorMatrix  type="matrix" values="1 0 0 0 0  0 1 0 0 0  0 0 1 0 0  0 0 0 1 0"/>
	</filter>
</defs>
<mask maskUnits="userSpaceOnUse" x="3.072" y="4.949" width="14.1" height="15.495" id="SVGID_1_">
	<g filter="url(#Adobe_OpacityMaskFilter)">
		<rect x="1.263" y="1.132" fill="#FFFFFF" width="19.959" height="16.816"/>
	</g>
</mask>
<g mask="url(#SVGID_1_)">
	
		<line fill="#0087FF" stroke="#0087FF" stroke-width="0.85" stroke-miterlimit="10" x1="16.804" y1="20.231" x2="8.103" y2="5.162"/>
	
		<line fill="#0087FF" stroke="#0087FF" stroke-width="0.85" stroke-miterlimit="10" x1="11.806" y1="19.524" x2="5.716" y2="8.977"/>
	<line fill="#0087FF" stroke="#0087FF" stroke-width="0.85" stroke-miterlimit="10" x1="7.621" y1="20.231" x2="3.44" y2="12.99"/>
</g>
<circle fill="#004786" cx="9.343" cy="7.298" r="1.022"/>
<circle fill="#004786" cx="10.781" cy="9.775" r="1.021"/>
<circle fill="#004786" cx="7.021" cy="11.347" r="1.021"/>
<circle fill="#004786" cx="14.921" cy="16.931" r="1.021"/>
<circle fill="#004786" cx="8.41" cy="13.744" r="1.021"/>
<circle fill="#004786" cx="10.245" cy="16.931" r="1.021"/>
<circle fill="#004786" cx="4.734" cy="15.272" r="1.021"/>
<circle fill="#004786" cx="12.157" cy="12.147" r="1.021"/>
<g>
	<path fill="#0087FF" d="M28.809,9.059c0.71,0.404,1.267,0.969,1.67,1.698s0.605,1.557,0.605,2.483c0,0.928-0.202,1.752-0.605,2.475
		c-0.403,0.722-0.96,1.288-1.67,1.697s-1.505,0.614-2.384,0.614c-0.843,0-1.605-0.201-2.285-0.605
		c-0.681-0.403-1.208-0.966-1.581-1.688v2.222h-0.867V4.553h0.903v6.123c0.373-0.698,0.897-1.243,1.571-1.635
		c0.674-0.391,1.427-0.587,2.258-0.587C27.304,8.454,28.099,8.655,28.809,9.059z M28.321,16.708
		c0.578-0.337,1.033-0.807,1.364-1.409c0.331-0.602,0.497-1.288,0.497-2.059s-0.166-1.457-0.497-2.059
		c-0.331-0.603-0.786-1.072-1.364-1.409c-0.578-0.337-1.228-0.505-1.95-0.505c-0.723,0-1.37,0.168-1.942,0.505
		s-1.023,0.807-1.354,1.409c-0.331,0.602-0.497,1.288-0.497,2.059s0.166,1.457,0.497,2.059c0.331,0.603,0.783,1.072,1.354,1.409
		s1.219,0.506,1.942,0.506C27.093,17.213,27.744,17.044,28.321,16.708z"/>
	<path fill="#0087FF" d="M39.718,9.348c0.626,0.596,0.939,1.472,0.939,2.627v5.979H39.79v-1.68
		c-0.301,0.554-0.741,0.984-1.318,1.291c-0.578,0.308-1.271,0.461-2.077,0.461c-1.047,0-1.875-0.247-2.483-0.74
		c-0.608-0.494-0.912-1.144-0.912-1.951c0-0.782,0.28-1.417,0.84-1.905c0.56-0.487,1.454-0.731,2.682-0.731h3.233v-0.759
		c0-0.878-0.238-1.547-0.713-2.004c-0.476-0.458-1.171-0.687-2.086-0.687c-0.626,0-1.226,0.108-1.797,0.325
		c-0.572,0.217-1.056,0.506-1.454,0.867l-0.452-0.65c0.47-0.421,1.036-0.75,1.698-0.984c0.662-0.234,1.354-0.352,2.077-0.352
		C38.194,8.454,39.091,8.752,39.718,9.348z M38.517,16.744c0.548-0.361,0.96-0.885,1.237-1.571v-1.771h-3.215
		c-0.927,0-1.598,0.169-2.014,0.506c-0.416,0.338-0.623,0.801-0.623,1.391c0,0.614,0.229,1.1,0.686,1.454
		c0.458,0.355,1.102,0.533,1.933,0.533C37.304,17.286,37.969,17.105,38.517,16.744z"/>
	<path fill="#0087FF" d="M45.677,17.412c-0.722-0.409-1.288-0.978-1.697-1.707c-0.409-0.728-0.614-1.55-0.614-2.465
		c0-0.927,0.205-1.755,0.614-2.483s0.976-1.294,1.697-1.698c0.723-0.403,1.542-0.605,2.457-0.605c0.758,0,1.447,0.147,2.067,0.442
		c0.62,0.295,1.123,0.726,1.508,1.292l-0.668,0.487c-0.337-0.47-0.756-0.822-1.255-1.057c-0.5-0.235-1.051-0.352-1.652-0.352
		c-0.735,0-1.395,0.166-1.978,0.497c-0.585,0.331-1.042,0.798-1.373,1.399c-0.331,0.603-0.497,1.295-0.497,2.077
		c0,0.783,0.166,1.475,0.497,2.077s0.788,1.068,1.373,1.399c0.583,0.331,1.242,0.497,1.978,0.497c0.602,0,1.152-0.117,1.652-0.353
		c0.499-0.234,0.918-0.587,1.255-1.057l0.668,0.488c-0.385,0.565-0.888,0.996-1.508,1.291s-1.31,0.442-2.067,0.442
		C47.219,18.026,46.4,17.821,45.677,17.412z"/>
	<path fill="#0087FF" d="M55.529,17.412c-0.716-0.409-1.279-0.978-1.688-1.707c-0.409-0.728-0.614-1.55-0.614-2.465
		s0.205-1.736,0.614-2.465s0.973-1.298,1.688-1.707c0.717-0.409,1.521-0.614,2.411-0.614s1.694,0.205,2.411,0.614
		s1.279,0.979,1.688,1.707s0.614,1.55,0.614,2.465s-0.205,1.737-0.614,2.465c-0.409,0.729-0.972,1.298-1.688,1.707
		s-1.521,0.614-2.411,0.614S56.246,17.821,55.529,17.412z M59.881,16.708c0.572-0.337,1.023-0.807,1.354-1.409
		c0.331-0.602,0.497-1.288,0.497-2.059s-0.166-1.457-0.497-2.059c-0.331-0.603-0.782-1.072-1.354-1.409
		c-0.571-0.337-1.219-0.505-1.941-0.505s-1.369,0.168-1.941,0.505s-1.023,0.807-1.354,1.409c-0.331,0.602-0.497,1.288-0.497,2.059
		s0.166,1.457,0.497,2.059c0.331,0.603,0.782,1.072,1.354,1.409s1.219,0.506,1.941,0.506S59.31,17.044,59.881,16.708z"/>
	<path fill="#0087FF" d="M72.859,9.483c0.687,0.686,1.029,1.673,1.029,2.961v5.509h-0.903v-5.437c0-1.06-0.268-1.866-0.804-2.42
		c-0.535-0.554-1.285-0.831-2.248-0.831c-1.108,0-1.98,0.331-2.619,0.994c-0.638,0.662-0.957,1.553-0.957,2.673v5.021h-0.903V8.526
		h0.867v2.041c0.325-0.662,0.81-1.18,1.454-1.553c0.644-0.373,1.405-0.56,2.284-0.56C71.24,8.454,72.172,8.797,72.859,9.483z"/>
	<path fill="#0087FF" d="M82.286,17.358c-0.229,0.217-0.515,0.382-0.857,0.496c-0.344,0.114-0.702,0.172-1.075,0.172
		c-0.818,0-1.45-0.226-1.896-0.678c-0.446-0.451-0.669-1.08-0.669-1.887V9.303h-1.733V8.526h1.733V6.467h0.903v2.059h2.998v0.777
		h-2.998v6.068c0,0.614,0.147,1.081,0.442,1.4c0.295,0.318,0.731,0.479,1.31,0.479c0.59,0,1.077-0.175,1.463-0.524L82.286,17.358z"
		/>
</g>
<g>
</g>
<g>
</g>
<g>
</g>
<g>
</g>
<g>
</g>
<g>
</g>
</svg>
